<?xml version="1.0" encoding="utf-8"?>
<!-- Generator: Adobe Illustrator 26.5.3, SVG Export Plug-In . SVG Version: 6.00 Build 0)  -->
<svg version="1.1" id="Layer_1" xmlns="http://www.w3.org/2000/svg" xmlns:xlink="http://www.w3.org/1999/xlink" x="0px" y="0px"
	 viewBox="0 0 16 16" style="enable-background:new 0 0 16 16;" xml:space="preserve">
<style type="text/css">
	.st0{opacity:1.000000e-02;fill:#252526;enable-background:new    ;}
	.st1{fill:#252526;}
	.st2{fill:#C5C5C5;}
	.st3{fill:#14FFAF;}
</style>
<g id="outline">
	<rect class="st0" width="16" height="16"/>
	<path class="st1" d="M12.1,0H6C5,0,4,0.7,4,2v6.3C3.6,7.8,2.9,7.6,2.2,7.9c-0.8,0.3-1.1,1.2-0.8,2l0.4,1C0.7,11.9,0,13.4,0,15v1h13
		v-1c0-0.3,0-0.7-0.1-1H14c1.3,0,2-1,2-2V3.6L12.1,0z"/>
</g>
<g id="icon_x5F_bg">
	<path class="st2" d="M11.6,1H6c0,0-1,0-1,1c0,0.6,0,4.3,0,7.2c0.3-0.1,0.7-0.1,1-0.1V2h5v3h3v7h-2c0.2,0.3,0.4,0.7,0.6,1
		c0.7,0,1.2,0,1.4,0c1,0,1-1,1-1V4L11.6,1z"/>
</g>
<g id="Layer_4">
	<g>
		<path class="st3" d="M1,15h10.5c0-1.6-0.8-3-2-3.9l0.7-1.7c0.1-0.3,0-0.5-0.3-0.7C9.6,8.7,9.4,8.8,9.2,9l-0.5,1.1l-0.3,0.5
			c-0.7-0.3-1.5-0.5-2.3-0.5c-0.8,0-1.6,0.2-2.3,0.5l-0.3-0.5L3.3,9C3.2,8.8,2.9,8.7,2.6,8.8C2.4,8.9,2.2,9.2,2.3,9.4l0.7,1.7
			C1.8,12,1,13.4,1,15z M9,12.5c0.3,0,0.5,0.2,0.5,0.5S9.3,13.5,9,13.5S8.5,13.3,8.5,13S8.7,12.5,9,12.5z M4,12.5
			c0.3,0,0.5,0.2,0.5,0.5S4.3,13.5,4,13.5S3.5,13.3,3.5,13S3.7,12.5,4,12.5z"/>
	</g>
</g>
<g id="icon_x5F_fg">
	<path class="st1" d="M11,5V2H6v7.1c0.1,0,0.2,0,0.3,0c0.6,0,1.2,0.1,1.8,0.2l0.3-0.7c0.3-0.8,1.2-1.1,2-0.8
		c0.4,0.2,0.7,0.4,0.8,0.8s0.1,0.8,0,1.1l-0.1,1c0.4,0.4,0.7,0.8,1,1.2h2V5H11z"/>
</g>
</svg>
