<?xml version="1.0" encoding="utf-8"?>
<!-- Generator: Adobe Illustrator 26.5.3, SVG Export Plug-In . SVG Version: 6.00 Build 0)  -->
<svg version="1.1" id="Layer_1" xmlns="http://www.w3.org/2000/svg" xmlns:xlink="http://www.w3.org/1999/xlink" x="0px" y="0px"
	 viewBox="0 0 16 16" style="enable-background:new 0 0 16 16;" xml:space="preserve">
<style type="text/css">
	.st0{fill:#252526;fill-opacity:0;}
	.st1{fill:#252526;}
	.st2{fill:#C5C5C5;}
	.st3{fill:#41D7FF;}
</style>
<g id="canvas">
	<path id="XMLID_1_" class="st0" d="M16,16H0V0h16V16z"/>
</g>
<g id="outline">
	<path id="XMLID_3_" class="st1" d="M16,3.6V12c0,1-0.7,2-2,2H9.7c-1,1.2-2.5,2-4.2,2c-3,0-5.5-2.5-5.5-5.5C0,8,1.7,5.9,4,5.2V2
		c0-1.3,1-2,2-2h6L16,3.6z"/>
</g>
<g id="iconBg">
	<path id="XMLID_5_" class="st2" d="M15,4v8c0,0,0,1-1,1c-0.4,0-2,0-3.6,0c0.2-0.3,0.3-0.7,0.4-1H14V5h-3V2H6v3C5.8,5,5.7,5,5.5,5
		S5.2,5,5,5c0-1.5,0-2.7,0-3c0-1,1-1,1-1h5.7L15,4z"/>
</g>
<g id="iconFg">
	<path class="st1" d="M14,5v7h-3.2c0.1-0.5,0.2-1,0.2-1.5C11,7.6,8.8,5.3,6,5V2h5v3H14z"/>
</g>
<g id="colorImportance">
	<path class="st3" d="M10,10.5c0-0.1,0-0.1,0-0.2l0,0C9.9,8,8,6,5.5,6S1,8.1,1,10.5c0,0.1,0,0.3,0,0.4c0,0.1,0,0.2,0,0.3l0,0l0,0
		c0.3,1.9,1.8,3.4,3.7,3.7l0,0l0,0c0.1,0,0.2,0,0.3,0c0.1,0,0.3,0,0.4,0s0.3,0,0.4,0l0,0C8.2,14.8,10,12.9,10,10.5z M7.4,9.5
		c0.5-0.1,1-0.2,1.5-0.4c0.2,0.4,0.3,0.9,0.3,1.5c0,0.1,0,0.2,0,0.2c-0.7,0.3-1.3,0.5-1.8,0.6c0.1-0.4,0.1-0.8,0.1-1.1
		C7.5,10,7.5,9.7,7.4,9.5z M8.6,8.5C8.1,8.6,7.7,8.7,7.3,8.8C7.2,8.1,7,7.5,6.7,7.1C7.5,7.3,8.1,7.8,8.6,8.5z M5.5,14.2
		c-0.1,0-0.2,0-0.3,0c-0.3-0.7-0.6-1.4-0.7-2.1c0.3,0,0.7,0.1,1,0.1c0.1,0,0.2,0,0.3,0c0.2,0,0.4,0,0.7,0C6.3,12.8,6,13.5,5.5,14.2
		C5.6,14.2,5.5,14.2,5.5,14.2z M5.5,11.5c-0.4,0-0.8,0-1.2-0.1c-0.1-0.4-0.1-0.8-0.1-1.2c0-0.2,0-0.5,0-0.7c0.4,0,0.8,0.1,1.2,0.1
		c0.1,0,0.2,0,0.3,0c0.3,0,0.6,0,1-0.1c0,0.2,0,0.5,0,0.7c0,0.4,0,0.8-0.1,1.2C6.3,11.4,5.9,11.5,5.5,11.5z M5.5,6.8
		c0.1,0,0.2,0,0.3,0c0.3,0.5,0.6,1.2,0.8,2c-0.4,0-0.7,0-1.1,0s-0.8,0-1.1-0.1C4.6,8,4.8,7.4,5.1,6.9C5.2,6.9,5.4,6.8,5.5,6.8z
		 M4.2,7.1C4,7.6,3.8,8.1,3.7,8.7C3.3,8.6,2.9,8.5,2.5,8.4C2.9,7.8,3.5,7.4,4.2,7.1z M1.8,10.5c0-0.5,0.1-1,0.3-1.5
		C2.5,9.1,3,9.3,3.6,9.3c0,0.3,0,0.5,0,0.8s0,0.7,0.1,1.1c-0.7-0.1-1.3-0.3-1.8-0.5C1.8,10.7,1.8,10.6,1.8,10.5z M2,11.6
		c0.5,0.2,1.1,0.3,1.8,0.4c0.1,0.7,0.3,1.4,0.6,2.1C3.2,13.7,2.3,12.8,2,11.6z M6.4,14.1C6.7,13.4,7,12.7,7.2,12
		c0.6-0.1,1.2-0.2,1.9-0.5C8.7,12.8,7.7,13.8,6.4,14.1z"/>
</g>
</svg>
