<?xml version="1.0" encoding="utf-8"?>
<!-- Generator: Adobe Illustrator 26.5.3, SVG Export Plug-In . SVG Version: 6.00 Build 0)  -->
<svg version="1.1" id="Layer_1" xmlns="http://www.w3.org/2000/svg" xmlns:xlink="http://www.w3.org/1999/xlink" x="0px" y="0px"
	 viewBox="0 0 16 16" style="enable-background:new 0 0 16 16;" xml:space="preserve">
<style type="text/css">
	.st0{fill:#252526;fill-opacity:0;}
	.st1{fill:#252526;}
	.st2{fill:#C5C5C5;}
	.st3{fill:#F582FF;}
</style>
<g id="canvas">
	<path id="XMLID_1_" class="st0" d="M16,16H0V0h16V16z"/>
</g>
<g id="outline">
	<path id="XMLID_3_" class="st1" d="M4,15c-1,0-2-0.7-2-2V3c0-1.3,1-2,2-2h6.1L14,4.6V13c0,1-0.7,2-2,2H4z"/>
</g>
<g id="iconBg">
	<path id="XMLID_5_" class="st2" d="M9.6,2H4c0,0-1,0-1,1c0,0.8,0,7.4,0,10c0,1,1,1,1,1s7,0,8,0s1-1,1-1V5L9.6,2z M12,13H4V3h5v3h3
		V13z"/>
</g>
<g id="iconFg">
	<path id="XMLID_8_" class="st1" d="M9,6V3H4v10h8V6H9z M9,8.2C8.9,8.1,8.7,8,8.5,7.9C8.3,7.9,8.2,7.8,8,7.8c-0.2,0-0.4,0-0.6,0.1
		C7.2,8,7.1,8.1,7,8.2C6.8,8.4,6.7,8.5,6.7,8.7C6.6,8.9,6.6,9.1,6.6,9.4c0,0.2,0,0.4,0.1,0.6c0.1,0.2,0.2,0.3,0.3,0.5
		c0.1,0.1,0.3,0.2,0.4,0.3c0.2,0.1,0.4,0.1,0.6,0.1c0.1,0,0.2,0,0.3,0c0.1,0,0.2,0,0.3-0.1c0.1,0,0.2-0.1,0.3-0.1
		c0.1,0,0.2-0.1,0.2-0.1v0.9c-0.2,0.1-0.3,0.2-0.5,0.2c-0.2,0.1-0.4,0.1-0.7,0.1c-0.3,0-0.6-0.1-0.9-0.2c-0.3-0.1-0.5-0.3-0.7-0.5
		c-0.2-0.2-0.3-0.4-0.4-0.7c-0.1-0.3-0.2-0.6-0.2-0.9c0-0.4,0.1-0.7,0.2-1C5.8,8.1,6,7.9,6.2,7.7c0.2-0.2,0.5-0.4,0.8-0.5
		C7.2,7.1,7.6,7,7.9,7C8,7,8.2,7,8.3,7c0.1,0,0.2,0,0.3,0.1c0.1,0,0.2,0,0.2,0.1c0.1,0,0.1,0.1,0.2,0.1V8.2z"/>
</g>
<g id="colorImportance">
	<path id="XMLID_11_" class="st3" d="M8.5,11.6c-0.2,0.1-0.4,0.1-0.7,0.1c-0.3,0-0.6-0.1-0.9-0.2c-0.3-0.1-0.5-0.3-0.7-0.5
		c-0.2-0.2-0.3-0.4-0.4-0.7c-0.1-0.3-0.2-0.6-0.2-0.9c0-0.4,0.1-0.7,0.2-1C5.8,8.1,6,7.9,6.2,7.7c0.2-0.2,0.5-0.4,0.8-0.5
		C7.2,7.1,7.6,7,7.9,7C8,7,8.2,7,8.3,7c0.1,0,0.2,0,0.3,0.1c0.1,0,0.2,0,0.2,0.1c0.1,0,0.1,0.1,0.2,0.1v1C8.9,8.1,8.7,8,8.5,7.9
		C8.3,7.9,8.2,7.8,8,7.8c-0.2,0-0.4,0-0.6,0.1C7.2,8,7.1,8.1,7,8.2C6.8,8.4,6.7,8.5,6.7,8.7C6.6,8.9,6.6,9.1,6.6,9.4
		c0,0.2,0,0.4,0.1,0.6c0.1,0.2,0.2,0.3,0.3,0.5c0.1,0.1,0.3,0.2,0.4,0.3c0.2,0.1,0.4,0.1,0.6,0.1c0.1,0,0.2,0,0.3,0
		c0.1,0,0.2,0,0.3-0.1c0.1,0,0.2-0.1,0.3-0.1c0.1,0,0.2-0.1,0.2-0.1v0.9C8.8,11.5,8.7,11.5,8.5,11.6z"/>
</g>
</svg>
