<?xml version="1.0" encoding="utf-8"?>
<!-- Generator: Adobe Illustrator 26.5.3, SVG Export Plug-In . SVG Version: 6.00 Build 0)  -->
<svg version="1.1" id="Layer_1" xmlns="http://www.w3.org/2000/svg" xmlns:xlink="http://www.w3.org/1999/xlink" x="0px" y="0px"
	 viewBox="0 0 16 16" style="enable-background:new 0 0 16 16;" xml:space="preserve">
<style type="text/css">
	.st0{fill:#252526;fill-opacity:0;}
	.st1{fill:#252526;}
	.st2{fill:#A277FF;}
</style>
<g id="outline">
	<rect class="st0" width="16" height="16"/>
	<polygon class="st1" points="15,7 13,7 13,5 7,5 7,3 3,3 3,5 1,5 1,9 3,9 3,11 9,11 9,13 13,13 13,11 15,11 	"/>
</g>
<g id="color_x5F_importance">
	<g>
		<polygon class="st2" points="6,6 6,4 4,4 4,6 2,6 2,8 4,8 4,10 6,10 6,8 8,8 8,6 		"/>
		<polygon class="st2" points="14,8 12,8 12,6 10,6 10,8 8,8 8,10 10,10 10,12 12,12 12,10 14,10 		"/>
	</g>
</g>
</svg>
