<?xml version="1.0" encoding="utf-8"?>
<!-- Generator: Adobe Illustrator 26.5.3, SVG Export Plug-In . SVG Version: 6.00 Build 0)  -->
<svg version="1.2" baseProfile="tiny" id="Layer_1" xmlns="http://www.w3.org/2000/svg" xmlns:xlink="http://www.w3.org/1999/xlink"
	 x="0px" y="0px" viewBox="0 0 16 16" overflow="visible" xml:space="preserve">
<g id="outline">
	<rect fill="#F6F6F6" fill-opacity="0" width="16" height="16"/>
	<path fill="#F6F6F6" d="M10.7,0C8.7,0,7,1.1,6,2.6V2H1v3h1v1H1v2H0v8h14v-6l0.7-0.8c0.6-0.6,1-1.4,1.3-2.3V4
		C15.3,1.7,13.2,0,10.7,0z"/>
</g>
<g id="icon_x5F_bg">
	<g>
		<path fill="#656565" d="M1,9v6h12V9H1z M4,14l-0.2-1H3.2L3,14H2l1-4h1l1,4H4z M8.6,11h-1v3h-1v-3h-1v-1h3V11z M12,14h-2v-4h1v3h1
			V14z"/>
		<g>
			<polyline fill="#656565" points="3.8,12.3 3.5,11 3.2,12.3 			"/>
		</g>
	</g>
</g>
<g id="color_x5F_importance">
	<polygon fill="#A277FF" points="13.5,8 14,8 14,8 	"/>
	<polygon fill="#A277FF" points="9.2,8 10,8 10,8 	"/>
	<polygon fill="#A277FF" points="11.4,8 12.1,8 12.1,8 	"/>
	<g>
		<rect x="3" y="5" fill="#A277FF" width="2" height="1"/>
		<rect x="2" y="3" fill="#A277FF" width="3" height="1"/>
		<rect x="2" y="7" fill="#A277FF" width="3" height="1"/>
		<path fill="#A277FF" d="M14,8.1v0.6c0.8-0.8,1.3-1.9,1.3-3.1c0-0.1,0-0.1,0-0.2C15.2,3,13.2,1,10.8,1c-2.5,0-4.5,2-4.5,4.5
			c0,0.1,0,0.3,0,0.4c0,0.1,0,0.2,0,0.3c0,0,0,0,0,0C6.4,6.9,6.7,7.5,7,8h1l0,0C7.7,7.6,7.4,7.1,7.2,6.6C7.7,6.7,8.3,6.9,9,7
			C9,7.3,9.1,7.7,9.2,8H10C9.9,7.7,9.8,7.4,9.7,7.1c0.3,0,0.7,0.1,1,0.1c0.1,0,0.2,0,0.3,0c0.2,0,0.5,0,0.7,0
			c-0.1,0.3-0.2,0.6-0.3,0.9h0.8c0.1-0.3,0.2-0.6,0.3-0.9C13,7,13.6,6.9,14.3,6.6c-0.2,0.5-0.4,1-0.8,1.4L14,8.1L14,8.1L14,8.1z
			 M10.3,1.9c0.2,0,0.3,0,0.5,0c0.1,0,0.2,0,0.3,0c0.3,0.5,0.6,1.2,0.8,2c-0.4,0-0.7,0-1.1,0c-0.4,0-0.8,0-1.1-0.1
			C9.8,3,10,2.4,10.3,1.9z M7.1,5.8c0-0.1,0-0.2,0-0.3c0-0.5,0.1-1,0.3-1.5c0.4,0.1,0.9,0.3,1.5,0.3c0,0.3,0,0.5,0,0.8
			c0,0.3,0,0.7,0.1,1C8.2,6.1,7.6,6,7.1,5.8z M9,3.7C8.5,3.6,8.1,3.5,7.7,3.4c0.4-0.6,1-1.1,1.7-1.3C9.2,2.6,9.1,3.1,9,3.7z
			 M11.9,6.4c-0.4,0-0.7,0-1.1,0c-0.4,0-0.8,0-1.2-0.1C9.5,6,9.5,5.6,9.5,5.2c0-0.2,0-0.5,0-0.7c0.4,0,0.8,0.1,1.2,0.1
			c0.1,0,0.2,0,0.3,0c0.3,0,0.6,0,1,0c0,0.2,0,0.5,0,0.7C12,5.6,12,6,11.9,6.4z M12,2.1c0.8,0.3,1.4,0.8,1.8,1.4
			c-0.4,0.2-0.9,0.3-1.3,0.3C12.4,3.1,12.2,2.5,12,2.1z M12.6,6.3c0.1-0.4,0.1-0.8,0.1-1.1c0-0.3,0-0.5,0-0.7c0.5-0.1,1-0.2,1.5-0.4
			c0.2,0.4,0.3,0.9,0.3,1.5c0,0.1,0,0.2,0,0.2C13.8,6.1,13.2,6.2,12.6,6.3z"/>
	</g>
</g>
<g id="icon_x5F_fg">
	<g>
		<g>
			<path fill="#F3F3F3" d="M11,7.2c-0.1,0-0.2,0-0.3,0c-0.4,0-0.7,0-1-0.1C9.8,7.4,9.9,7.7,10,8h1.4c0.1-0.3,0.2-0.6,0.3-0.9
				C11.5,7.2,11.2,7.2,11,7.2z"/>
			<path fill="#F3F3F3" d="M12.4,7.1c-0.1,0.3-0.2,0.6-0.3,0.9h1.4c0.4-0.4,0.6-0.9,0.8-1.4C13.6,6.9,13,7,12.4,7.1z"/>
			<path fill="#F3F3F3" d="M7.2,6.6C7.4,7.1,7.7,7.6,8,8h1.2C9.1,7.7,9,7.3,9,7C8.3,6.9,7.7,6.7,7.2,6.6z"/>
			<path fill="#F3F3F3" d="M12,2.1c0.2,0.5,0.5,1.1,0.6,1.7c0.4-0.1,0.8-0.2,1.3-0.3C13.4,2.8,12.7,2.3,12,2.1z"/>
			<path fill="#F3F3F3" d="M11,4.5c-0.1,0-0.2,0-0.3,0c-0.4,0-0.8,0-1.2-0.1c0,0.2,0,0.5,0,0.7c0,0.4,0,0.8,0.1,1.2
				c0.4,0,0.8,0.1,1.2,0.1c0.4,0,0.7,0,1.1,0C12,6,12,5.6,12,5.2c0-0.2,0-0.5,0-0.7C11.6,4.6,11.3,4.5,11,4.5z"/>
			<path fill="#F3F3F3" d="M11.9,3.9c-0.2-0.8-0.5-1.5-0.8-2c-0.1,0-0.2,0-0.3,0c-0.2,0-0.3,0-0.5,0C10,2.4,9.8,3,9.6,3.8
				c0.4,0,0.7,0.1,1.1,0.1C11.1,3.9,11.5,3.9,11.9,3.9z"/>
			<path fill="#F3F3F3" d="M14.5,5.5c0-0.5-0.1-1-0.3-1.5c-0.5,0.2-1,0.3-1.5,0.4c0,0.2,0,0.5,0,0.7c0,0.4,0,0.7-0.1,1.1
				c0.6-0.1,1.2-0.3,1.8-0.6C14.5,5.7,14.5,5.6,14.5,5.5z"/>
			<path fill="#F3F3F3" d="M8.9,4.4c-0.5-0.1-1-0.2-1.5-0.3C7.2,4.5,7.1,5,7.1,5.5c0,0.1,0,0.2,0,0.3C7.6,6,8.2,6.1,8.9,6.3
				c0-0.4-0.1-0.7-0.1-1.1C8.8,4.9,8.8,4.7,8.9,4.4z"/>
			<path fill="#F3F3F3" d="M7.7,3.4C8.1,3.5,8.5,3.6,9,3.7c0.1-0.6,0.3-1.1,0.5-1.6C8.7,2.4,8.1,2.8,7.7,3.4z"/>
		</g>
		<g>
			<path fill="#F3F3F3" d="M3,10l-1,4h1l0.2-1h0.5L4,14h1l-1-4H3z M3.3,12.2L3.5,11l0.2,1.2H3.3z"/>
			<polygon fill="#F3F3F3" points="5.6,11 6.6,11 6.6,14 7.6,14 7.6,11 8.6,11 8.6,10 5.6,10 			"/>
			<polygon fill="#F3F3F3" points="11,12.9 11,10 10,10 10,14 12,14 12,12.9 			"/>
		</g>
	</g>
	<path fill="#9B4F96" d="M0,9.2"/>
</g>
</svg>
