<?xml version="1.0" encoding="utf-8"?>
<!-- Generator: Adobe Illustrator 26.5.3, SVG Export Plug-In . SVG Version: 6.00 Build 0)  -->
<svg version="1.1" id="Layer_1" xmlns="http://www.w3.org/2000/svg" xmlns:xlink="http://www.w3.org/1999/xlink" x="0px" y="0px"
	 viewBox="0 0 16 16" style="enable-background:new 0 0 16 16;" xml:space="preserve">
<style type="text/css">
	.st0{fill:#F6F6F6;fill-opacity:0;}
	.st1{fill:#F6F6F6;}
	.st2{fill:#656565;}
	.st3{fill:#9B78FF;}
	.st4{fill:#F3F3F3;}
</style>
<g id="outline">
	<rect class="st0" width="16" height="16"/>
	<path class="st1" d="M4,15c-1,0-2-0.7-2-2V3c0-1.3,1-2,2-2h6.1L14,4.6V13c0,1-0.7,2-2,2H4z"/>
</g>
<g id="icon_x5F_bg">
	<path class="st2" d="M9.6,2H4c0,0-1,0-1,1c0,0.8,0,7.4,0,10c0,1,1,1,1,1s7,0,8,0s1-1,1-1V5L9.6,2z M12,13H4V3h5v3h3V13z"/>
</g>
<g id="color_x5F_importance">
	<polygon class="st3" points="7,8 7,6 6,6 6,11 7,11 7,9 9,9 9,11 10,11 10,9 10,8 9,8 	"/>
</g>
<g id="icon_x5F_fg">
	<path class="st4" d="M9,6V3H4v10h8V6H9z M10,9v2H9V9H7v2H6V6h1v2h2h1V9z"/>
</g>
</svg>
