<?xml version="1.0" encoding="utf-8"?>
<!-- Generator: Adobe Illustrator 26.5.3, SVG Export Plug-In . SVG Version: 6.00 Build 0)  -->
<svg version="1.1" id="Layer_1" xmlns="http://www.w3.org/2000/svg" xmlns:xlink="http://www.w3.org/1999/xlink" x="0px" y="0px"
	 viewBox="0 0 16 16" style="enable-background:new 0 0 16 16;" xml:space="preserve">
<style type="text/css">
	.st0{fill:#252526;fill-opacity:0;}
	.st1{fill:#252526;}
	.st2{fill:#14FFAF;}
</style>
<g id="outline">
	<rect class="st0" width="16" height="16"/>
</g>
<path class="st1" d="M14,4V3H9v0.8L8.4,3.6C7.8,3.4,7.2,3.2,6.4,3.2c-1.3,0-2.4,0.4-3.2,1.3C2.4,5.4,2,6.5,2,7.9c0,1.2,0.4,2.3,1,3
	c0.8,0.9,1.8,1.3,3.1,1.3c0.9,0,1.7-0.2,2.3-0.5L9,11.5V10h5V9h1V4H14z M6.5,8.9c-0.4,0-0.6-0.1-0.7-0.3C5.6,8.5,5.5,8.2,5.5,7.8
	c0-0.7,0.2-0.9,0.3-1c0.1-0.1,0.3-0.3,0.7-0.3c0.4,0,0.7,0.1,0.9,0.3L8,7.1v1.2L7.5,8.6C7.2,8.8,6.8,8.9,6.5,8.9z"/>
<path class="st2" d="M8,10.9c-0.5,0.2-1.1,0.4-1.8,0.4c-1,0-1.8-0.3-2.4-1C3.3,9.7,3,8.9,3,7.9c0-1.1,0.3-2,1-2.6s1.5-1,2.5-1
	C7,4.2,7.6,4.3,8,4.5V6C7.6,5.7,7.1,5.6,6.5,5.6C6,5.6,5.5,5.8,5.1,6.1c-0.4,0.4-0.6,1-0.6,1.7C4.5,8.4,4.7,9,5,9.3
	c0.3,0.4,0.8,0.6,1.4,0.6C7,9.9,7.5,9.8,8,9.5C8,9.5,8,10.9,8,10.9z"/>
<path class="st2" d="M14,6V5h-1V4h-1v1h-1V4h-1v1H9v1h1v1H9v1h1v1h1V8h1v1h1V8h1V7h-1V6H14z M12,7h-1V6h1V7z"/>
</svg>
