<?xml version="1.0" encoding="utf-8"?>
<!-- Generator: Adobe Illustrator 26.5.3, SVG Export Plug-In . SVG Version: 6.00 Build 0)  -->
<svg version="1.1" id="Layer_1" xmlns="http://www.w3.org/2000/svg" xmlns:xlink="http://www.w3.org/1999/xlink" x="0px" y="0px"
	 viewBox="0 0 16 16" style="enable-background:new 0 0 16 16;" xml:space="preserve">
<style type="text/css">
	.st0{fill:#F6F6F6;fill-opacity:0;}
	.st1{fill:#F6F6F6;}
	.st2{fill:#FFB95A;}
	.st3{fill:#F3F3F3;}
</style>
<g id="canvas">
	<path id="XMLID_1_" class="st0" d="M16,16H0V0h16V16z"/>
</g>
<g id="outline">
	<path class="st1" d="M14,1H6.9l-1,2H3C2,3,1,3.7,1,5v2H0v1.2L2.3,14H14c0,0,0.9,0,1.4-0.6c0.3-0.3,0.6-0.8,0.6-1.4V3
		C16,1.7,15,1,14,1z"/>
</g>
<g id="iconBg">
	<path id="XMLID_3_" class="st2" d="M14,2c0,0,1,0,1,1c0,2.4,0,8.2,0,9c0,1-1,1-1,1V3H8L7,5H3v3h8l3,5H3L1,8h1c0,0,0-2,0-3
		s1.2-1,1-1h3.5l1-2H14z"/>
</g>
<g id="iconFg">
	<path id="XMLID_5_" class="st3" d="M3,8V5h4l1-2h6v10l-3-5H3z"/>
</g>
</svg>
