<?xml version="1.0" encoding="utf-8"?>
<!-- Generator: Adobe Illustrator 26.5.3, SVG Export Plug-In . SVG Version: 6.00 Build 0)  -->
<svg version="1.1" id="Layer_1" xmlns="http://www.w3.org/2000/svg" xmlns:xlink="http://www.w3.org/1999/xlink" x="0px" y="0px"
	 viewBox="0 0 16 16" style="enable-background:new 0 0 16 16;" xml:space="preserve">
<style type="text/css">
	.st0{fill:#252526;fill-opacity:0;}
	.st1{fill:#252526;}
	.st2{fill:#9B78FF;}
</style>
<g id="outline">
	<rect class="st0" width="16" height="16"/>
	<polygon class="st1" points="14,3 2,3 2,12 5.9,12 5.9,9.3 8.8,9.3 8.8,9 9,9 9,10 14,10 14,9 15,9 15,4 14,4 	"/>
</g>
<g id="icon_x5F_bg">
</g>
<g id="color_x5F_importance">
	<g>
		<path class="st2" d="M14,6V5h-1V4h-1v1h-1V4h-1v1H9v1h1v1H9v1h1v1h1V8h1v1h1V8h1V7h-1V6H14z M12,7h-1V6h1V7z"/>
		<polygon class="st2" points="3,11 4.9,11 4.9,8.3 7.8,8.3 7.8,7 4.9,7 4.9,5.3 8,5.3 8,4 3,4 		"/>
	</g>
</g>
</svg>
