<?xml version="1.0" encoding="utf-8"?>
<!-- Generator: Adobe Illustrator 26.5.3, SVG Export Plug-In . SVG Version: 6.00 Build 0)  -->
<svg version="1.1" id="Layer_1" xmlns="http://www.w3.org/2000/svg" xmlns:xlink="http://www.w3.org/1999/xlink" x="0px" y="0px"
	 viewBox="0 0 16 16" style="enable-background:new 0 0 16 16;" xml:space="preserve">
<style type="text/css">
	.st0{fill:#F6F6F6;fill-opacity:0;}
	.st1{fill:#F6F6F6;}
	.st2{fill:#FF5164;}
</style>
<g id="canvas">
	<path class="st0" d="M16,16H0V0h16V16z"/>
</g>
<g id="outline">
	<path class="st1" d="M8,16c-0.5,0-1-0.2-1.3-0.6L0.6,9.3c-0.7-0.7-0.7-2,0-2.7l6.1-6.1C7,0.2,7.5,0,8,0s1,0.2,1.3,0.6l6.1,6.1
		c0.7,0.7,0.7,2,0,2.7l-6.1,6.1C9,15.8,8.5,16,8,16z"/>
</g>
<g id="iconBg">
	<path class="st2" d="M14.7,8.7l-6.1,6.1c-0.4,0.4-0.9,0.4-1.3,0l-6-6.2c-0.4-0.4-0.4-0.9,0-1.3l4.2-4.2l1.6,1.6
		C6.9,5.2,7,5.6,7.3,5.9C7.4,6,7.4,6,7.5,6v3.9c-0.1,0-0.2,0.1-0.3,0.2C7,10.3,6.9,10.6,6.9,11c0,0.6,0.5,1.1,1.1,1.1
		c0.1,0,0.2,0,0.2,0c0.2,0,0.4-0.1,0.6-0.3c0.4-0.4,0.4-0.9,0.1-1.4c-0.1-0.2-0.2-0.3-0.4-0.4V6.2L10,7.7c-0.2,0.4-0.1,0.9,0.2,1.2
		c0.4,0.4,1.1,0.4,1.5,0s0.4-1.1,0-1.5C11.4,7,11,6.9,10.6,7.1L9.1,5.5c0.1-0.4,0-0.8-0.3-1.1C8.5,4.1,8.1,4,7.7,4.2L6.1,2.6
		l1.3-1.3c0.4-0.4,0.9-0.4,1.3,0l6.1,6.1C15.1,7.7,15.1,8.3,14.7,8.7z"/>
</g>
</svg>
