<?xml version="1.0" encoding="utf-8"?>
<!-- Generator: Adobe Illustrator 26.5.3, SVG Export Plug-In . SVG Version: 6.00 Build 0)  -->
<svg version="1.1" id="Layer_1" xmlns="http://www.w3.org/2000/svg" xmlns:xlink="http://www.w3.org/1999/xlink" x="0px" y="0px"
	 viewBox="0 0 16 16" style="enable-background:new 0 0 16 16;" xml:space="preserve">
<style type="text/css">
	.st0{fill:#F6F6F6;fill-opacity:0;}
	.st1{fill:#F6F6F6;}
	.st2{fill:#4BD2FF;}
	.st3{fill:#656565;}
	.st4{fill:#F3F3F3;}
</style>
<g id="outline">
	<rect class="st0" width="16" height="16"/>
	<path class="st1" d="M12,0H6C5,0,4,0.7,4,2v3.8v2.8l-4,4v0.8L2.6,16h6.8l2-2h1.5h1c1.4,0,2-1.2,2-2V3.6L12,0z"/>
</g>
<g id="icon_x5F_bg">
	<g>
		<g>
			<circle class="st2" cx="6" cy="13" r="2"/>
		</g>
	</g>
	<g>
		<g>
			<path class="st3" d="M9,11v1l1,1l-1,1v1l2-2L9,11z M3,15v-1l-1-1l1-1v-1l-2,2L3,15z"/>
		</g>
	</g>
	<path class="st3" d="M11.6,1H6c0,0-1,0-1,1c0,0.6,0,4.1,0,7h1V2h5v3h3v7h-2v1c0.9,0,1.7,0,2,0c1,0,1-1,1-1V4L11.6,1z"/>
</g>
<g id="icon_x5F_fg">
	<polygon class="st4" points="11,5 11,2 6,2 6,10 8,10 8,8.6 11.4,12 14,12 14,5 	"/>
</g>
</svg>
