<?xml version="1.0" encoding="utf-8"?>
<!-- Generator: Adobe Illustrator 26.5.3, SVG Export Plug-In . SVG Version: 6.00 Build 0)  -->
<svg version="1.1" id="Layer_1" xmlns="http://www.w3.org/2000/svg" xmlns:xlink="http://www.w3.org/1999/xlink" x="0px" y="0px"
	 viewBox="0 0 16 16" style="enable-background:new 0 0 16 16;" xml:space="preserve">
<style type="text/css">
	.st0{fill:#F6F6F6;fill-opacity:0;}
	.st1{fill:#F6F6F6;}
	.st2{fill:#FFBE41;}
	.st3{fill:#F3F3F3;}
</style>
<g id="outline">
	<rect class="st0" width="16" height="16"/>
	<path class="st1" d="M12.6,4H8.2C8.1,3.9,8,3.7,8,3.6C7.4,2.7,6.5,2.3,5.7,2C4.5,1.6,4.4,1.4,4.4,1.1L4.5,0H1.4v1
		c0,1.8,0.8,2.6,1.6,3H1v5c0,1.8,0.5,3.1,1.1,4H2v3h10v-2.8c0.3-0.4,0.5-0.8,0.6-1.2l0,0c2,0,3.4-2.1,3.4-4.1V7.6
		C16,5.5,14.6,4,12.6,4z"/>
</g>
<g id="color_x5F_importance">
	<path class="st2" d="M12.6,5H12l0,0H7.5C7.4,4.7,7.3,4.4,7.1,4.1C6.3,2.7,3.2,3,3.4,1h-1c0,2,1.1,2.2,2.2,2.6
		C4.8,3.7,5.9,4,6.2,4.5C6.3,4.7,6.4,4.8,6.4,5H2v3.3V9c0,4.2,3,5,3,5H3v1h8v-1H9.4c0,0,2.3-0.8,2.3-3c0.1,0,0.2,0,0.3,0h0.6
		C14,11,15,9.3,15,7.9V7.6C15,6.1,14.1,5,12.6,5z M11,7H3V6h8V7z M14,7.9c0,0.8-0.5,2.1-2,2.1c0-0.9,0-1.9,0-1.9V6c1,0,2,0.8,2,1.5
		V7.9z"/>
</g>
<g id="icon_x5F_fg">
	<rect x="3" y="6" class="st3" width="8" height="1"/>
</g>
</svg>
