<?xml version="1.0" encoding="utf-8"?>
<!-- Generator: Adobe Illustrator 26.5.3, SVG Export Plug-In . SVG Version: 6.00 Build 0)  -->
<svg version="1.1" id="Layer_1" xmlns="http://www.w3.org/2000/svg" xmlns:xlink="http://www.w3.org/1999/xlink" x="0px" y="0px"
	 viewBox="0 0 16 16" style="enable-background:new 0 0 16 16;" xml:space="preserve">
<style type="text/css">
	.st0{fill:#F6F6F6;fill-opacity:0;}
	.st1{fill:#F6F6F6;}
	.st2{fill:#FFB95A;}
	.st3{fill:#F3F3F3;}
</style>
<g id="outline">
	<rect class="st0" width="16" height="16"/>
	<path class="st1" d="M13,0H6C3.8,0,2,1.8,2,4v6H0v1.5C0,13.4,1.6,15,3.5,15h6c1.9,0,3.5-1.6,3.5-3.5V5h3V3C16,1.3,14.7,0,13,0z"/>
</g>
<g id="color_x5F_importance">
	<path class="st2" d="M13,1H6C4.3,1,3,2.3,3,4v6h2V4c0-0.6,0.4-1,1-1h5v8.5c0,0.8-0.7,1.5-1.5,1.5S8,12.3,8,11.5V11H1v0.5
		C1,12.9,2.1,14,3.5,14h6c1.4,0,2.5-1.1,2.5-2.5V4h3V3C15,1.9,14.1,1,13,1z"/>
</g>
<g id="icon_x5F_fg">
	<path class="st3" d="M6,3C5.4,3,5,3.4,5,4v6h6V3H6z"/>
</g>
</svg>
