<?xml version="1.0" encoding="utf-8"?>
<!-- Generator: Adobe Illustrator 26.5.3, SVG Export Plug-In . SVG Version: 6.00 Build 0)  -->
<svg version="1.1" id="Layer_1" xmlns="http://www.w3.org/2000/svg" xmlns:xlink="http://www.w3.org/1999/xlink" x="0px" y="0px"
	 viewBox="0 0 16 16" style="enable-background:new 0 0 16 16;" xml:space="preserve">
<style type="text/css">
	.st0{fill:#F6F6F6;fill-opacity:0;}
	.st1{fill:#F6F6F6;}
	.st2{fill:#656565;}
	.st3{fill:#F3F3F3;}
	.st4{fill:#FFB95A;}
</style>
<g id="canvas">
	<path class="st0" d="M16,16H0V0h16V16z"/>
</g>
<g id="outline">
	<path class="st1" d="M13,0H6C3.8,0,2,1.8,2,4v6H0v3.4L2.6,16H4v-0.5C4.5,15.8,5.2,16,6,16s1.5-0.2,2-0.5V16h1.4l1.2-1.2
		C12,14.3,13,13,13,11.5V5h3V3C16,1.3,14.7,0,13,0z"/>
</g>
<g id="iconBg">
	<path class="st2" d="M13,1H6C4.3,1,3,2.3,3,4v5h2V4c0-0.6,0.4-1,1-1h5v8.5c0,0,0,0.1,0,0.1l0.8,0.8c0.1-0.3,0.2-0.6,0.2-0.9V4h3V3
		C15,1.9,14.1,1,13,1z"/>
</g>
<g id="iconFg">
	<path class="st3" d="M6,3C5.4,3,5,3.4,5,4v5h3.4c0,0,2.6,2.5,2.6,2.5V3H6z"/>
</g>
<g id="colorImportance">
	<g>
		<path class="st4" d="M11,13l-2,2v-1l1-1l-1-1v-1L11,13z"/>
		<path class="st4" d="M3,11v1l-1,1l1,1v1l-2-2L3,11z"/>
		<path class="st4" d="M6,10c-1.1,0-2,0.5-2,1.2v2.6C4,14.5,4.9,15,6,15s2-0.5,2-1.2v-2.6C8,10.5,7.1,10,6,10z M6,11.9
			c-0.9,0-1.5-0.4-1.5-0.8c0-0.4,0.6-0.8,1.5-0.8s1.5,0.4,1.5,0.8C7.5,11.6,6.9,11.9,6,11.9z"/>
	</g>
</g>
<g id="notificationFg">
	<path class="st3" d="M6,11.9c-0.9,0-1.5-0.4-1.5-0.8c0-0.4,0.6-0.8,1.5-0.8s1.5,0.4,1.5,0.8C7.5,11.6,6.9,11.9,6,11.9z"/>
</g>
</svg>
