<?xml version="1.0" encoding="utf-8"?>
<!-- Generator: Adobe Illustrator 26.5.3, SVG Export Plug-In . SVG Version: 6.00 Build 0)  -->
<svg version="1.1" id="Layer_1" xmlns="http://www.w3.org/2000/svg" xmlns:xlink="http://www.w3.org/1999/xlink" x="0px" y="0px"
	 viewBox="0 0 16 16" style="enable-background:new 0 0 16 16;" xml:space="preserve">
<style type="text/css">
	.st0{fill:#F6F6F6;}
	.st1{fill:#656565;}
	.st2{fill:#41D7FF;}
	.st3{fill:#F3F3F3;}
</style>
<g id="outline">
	<path class="st0" d="M12.1,0H6C5,0,4,0.7,4,2v6H0v8h14v-2c1.3,0,2-1,2-2V3.6L12.1,0z"/>
</g>
<g id="icon_x5F_bg">
	<g>
		<rect x="7" y="3" class="st1" width="1" height="1"/>
		<rect x="7" y="5" class="st1" width="1" height="1"/>
		<path class="st1" d="M11.6,1H6c0,0-1,0-1,1c0,0.5,0,3.3,0,6h1V2h5v3h3v3v1v3v1c1,0,1-1,1-1V4L11.6,1z"/>
		<polygon class="st1" points="11,8 12,7 12,8 13,8 13,6 11.7,6 9.6,8 		"/>
		<rect x="7" y="7" class="st1" width="1" height="1"/>
	</g>
</g>
<g id="color_x5F_importance">
	<path class="st2" d="M1,9v6h12V9H1z M4.1,14H2v-4h0.8v3.3h1.3V14z M6.6,14H4.5v-4h2v0.7H5.3v1h1.1v0.7H5.3v1l0,0l0,0h1.3L6.6,14
		L6.6,14z M9.3,13.1c0,0.1,0,0.2-0.1,0.3c0,0.1-0.1,0.2-0.2,0.2c-0.1,0.1-0.2,0.1-0.3,0.2c-0.1,0.1-0.2,0.1-0.4,0.1
		c-0.1,0-0.3,0-0.5,0c-0.1,0-0.2,0-0.3,0c-0.1,0-0.2,0-0.3-0.1c-0.1,0-0.2,0-0.2-0.1c-0.1,0-0.1-0.1-0.2-0.1v-0.9
		C7.1,13,7.2,13,7.3,13.1c0.1,0.1,0.2,0.1,0.2,0.1c0.1,0,0.2,0.1,0.3,0.1c0.1,0,0.2,0,0.3,0s0.2,0,0.2,0c0.1,0,0.1-0.1,0.1-0.1
		l0.1-0.1V13c0-0.1,0-0.1,0-0.2c0-0.1-0.1-0.1-0.1-0.2c-0.1,0-0.1-0.1-0.2-0.1c-0.1,0-0.2-0.1-0.3-0.2c-0.2-0.1-0.3-0.2-0.4-0.2
		c-0.1-0.1-0.2-0.2-0.2-0.3c-0.1-0.1-0.1-0.2-0.1-0.3s0-0.2,0-0.3c0-0.2,0-0.3,0.1-0.5c0.1-0.1,0.1-0.3,0.3-0.4
		c0.1-0.1,0.2-0.2,0.4-0.2C8,10,8.1,10,8.3,10c0.1,0,0.2,0,0.3,0s0.2,0,0.2,0c0.1,0,0.1,0,0.2,0c0.1,0,0.1,0,0.1,0v1
		c0,0-0.1-0.1-0.2-0.1c-0.1,0-0.1-0.1-0.2-0.1c-0.1,0-0.1,0-0.2-0.1c-0.1,0-0.2,0-0.2,0c-0.1,0-0.1,0-0.2,0c-0.1,0-0.1,0-0.1,0.1
		l-0.1,0.1c0,0,0,0.1,0,0.2c0,0.1,0,0.1,0,0.2c0,0.1,0.1,0.1,0.1,0.1s0.1,0.1,0.2,0.1c0.1,0,0.1,0.1,0.2,0.1
		c0.2,0.1,0.3,0.2,0.4,0.3C8.9,12,9,12.1,9.1,12.2c0.1,0.1,0.1,0.2,0.2,0.3c0,0.1,0,0.2,0,0.3C9.3,12.9,9.3,13,9.3,13.1z M12,13.1
		c0,0.1,0,0.2-0.1,0.3c0,0.1-0.1,0.2-0.2,0.2c-0.1,0.1-0.2,0.1-0.3,0.2c-0.1,0.1-0.2,0.1-0.4,0.1c-0.1,0-0.3,0-0.5,0
		c-0.1,0-0.2,0-0.3,0s-0.2,0-0.3-0.1c-0.1,0-0.2,0-0.2-0.1c-0.1,0-0.1-0.1-0.2-0.1v-0.9C9.8,13,9.9,13,9.9,13.1
		c0.1,0.1,0.2,0.1,0.2,0.1c0.1,0,0.2,0.1,0.3,0.1s0.2,0,0.3,0s0.2,0,0.2,0c0.1,0,0.1-0.1,0.1-0.1l0.1-0.1V13c0-0.1,0-0.1,0-0.2
		c0-0.1-0.1-0.1-0.1-0.2c-0.1,0-0.1-0.1-0.2-0.1c-0.1,0-0.2-0.1-0.3-0.2c-0.2-0.1-0.3-0.2-0.4-0.2C10,12,9.9,11.9,9.9,11.8
		c-0.1-0.1-0.1-0.2-0.1-0.3s0-0.2,0-0.3c0-0.2,0-0.3,0.1-0.5c0.1-0.1,0.1-0.3,0.3-0.4c0.1-0.1,0.2-0.2,0.4-0.2
		c0-0.1,0.2-0.1,0.4-0.1c0.1,0,0.2,0,0.3,0s0.2,0,0.2,0c0.1,0,0.1,0,0.2,0c0.1,0,0.1,0,0.1,0v1c0,0-0.1-0.1-0.2-0.1
		c-0.1,0-0.1-0.1-0.2-0.1c-0.1,0-0.1,0-0.2-0.1c-0.1,0-0.2,0-0.2,0c-0.1,0-0.1,0-0.2,0c-0.1,0-0.1,0-0.1,0.1s-0.1,0.1-0.1,0.1
		s0,0.1,0,0.2c0,0.1,0,0.1,0,0.2c0,0.1,0.1,0.1,0.1,0.1s0.1,0.1,0.2,0.1c0.1,0,0.1,0.1,0.2,0.1c0.2,0.1,0.3,0.2,0.4,0.3
		c0.1,0.1,0.2,0.2,0.3,0.3s0.1,0.2,0.2,0.3c0,0.1,0.1,0.2,0.1,0.3C12,12.9,12,13,12,13.1z"/>
</g>
<g id="icon_x5F_fg">
	<g>
		<polygon class="st3" points="2.8,10 2,10 2,14 4.1,14 4.1,13.3 2.8,13.3 		"/>
		<path class="st3" d="M9.1,12.2C9,12.1,9,12,8.8,11.9c-0.1-0.1-0.3-0.2-0.4-0.3c-0.1,0-0.2-0.1-0.2-0.1c-0.1,0-0.1-0.1-0.2-0.1
			l-0.1-0.1c0-0.1,0-0.1,0-0.2c0-0.1,0-0.1,0-0.2L8,10.8l0.1-0.1c0.1,0,0.1,0,0.2,0c0.1,0,0.1,0,0.2,0c0.1,0,0.2,0,0.2,0.1
			c0.1,0,0.1,0.1,0.2,0.1C9,10.9,9,11,9.1,11v-0.8H9c-0.1,0-0.1,0-0.2,0s-0.2,0-0.2,0c-0.1,0-0.2,0-0.3,0c-0.2,0-0.4,0-0.5,0.1
			c-0.2,0.1-0.3,0.1-0.4,0.2c-0.1,0.1-0.2,0.2-0.3,0.4C7.1,10.8,7,11,7,11.2c0,0.1,0,0.2,0,0.3s0.1,0.2,0.1,0.3
			c0.1,0.1,0.1,0.2,0.2,0.3s0.2,0.2,0.4,0.2c0.1,0.1,0.2,0.1,0.3,0.2c0.1,0,0.1,0.1,0.2,0.1c0.1,0.1,0.1,0.1,0.1,0.2
			c0,0.1,0,0.1,0,0.2v0.1c0,0,0,0.1-0.1,0.1l-0.1,0.1c-0.1,0-0.1,0-0.2,0s-0.2,0-0.3,0c-0.1,0-0.2-0.1-0.3-0.1
			c-0.1,0-0.2-0.1-0.2-0.1C7,13.1,7,13,6.9,12.9v0.9c0,0,0.1,0.1,0.2,0.1S7.2,14,7.3,14s0.2,0,0.3,0.1c0.1,0,0.2,0,0.3,0
			c0.2,0,0.3,0,0.5,0c0.1,0,0.3-0.1,0.4-0.1C8.9,13.7,9,13.7,9,13.6c0.1-0.1,0.1-0.2,0.2-0.2c0-0.1,0.1-0.2,0.1-0.3s0-0.2,0-0.3
			s0-0.2,0-0.3C9.2,12.4,9.2,12.3,9.1,12.2z"/>
		<path class="st3" d="M11.8,12.2c-0.1-0.1-0.2-0.2-0.3-0.3s-0.3-0.2-0.4-0.3c-0.1,0-0.2-0.1-0.2-0.1c-0.1,0-0.1-0.1-0.2-0.1
			s-0.1-0.1-0.1-0.1c0-0.1,0-0.1,0-0.2c0-0.1,0-0.1,0-0.2l0.1-0.1l0.1-0.1c0.1,0,0.1,0,0.2,0c0.1,0,0.1,0,0.2,0c0.1,0,0.2,0,0.2,0.1
			c0.1,0,0.1,0.1,0.2,0.1c0.1,0,0.1,0.1,0.2,0.1v-0.8h-0.1c-0.1,0-0.1,0-0.2,0c-0.1,0-0.1,0-0.2,0c-0.1,0-0.2,0-0.3,0
			c-0.2,0-0.4,0-0.5,0.1c-0.2,0.1-0.3,0.1-0.4,0.2c-0.1,0.1-0.2,0.2-0.3,0.4c-0.1,0.1-0.1,0.3-0.1,0.5c0,0.1,0,0.2,0,0.3
			s0.1,0.2,0.1,0.3c0.1,0.1,0.1,0.2,0.2,0.3c0.1,0.1,0.2,0.2,0.4,0.2c0.1,0.1,0.2,0.1,0.3,0.2s0.1,0.1,0.2,0.1
			C11,12.9,11,12.9,11,13c0,0.1,0,0.1,0,0.2v0.1c0,0,0,0.1-0.1,0.1l-0.1,0.1c-0.1,0-0.1,0-0.2,0c-0.1,0-0.2,0-0.3,0
			s-0.2-0.1-0.3-0.1s-0.2-0.1-0.2-0.1c-0.1,0-0.1-0.1-0.2-0.2V14c0,0,0.1,0.1,0.2,0.1c0.1,0,0.1,0.1,0.2,0.1c0.1,0,0.2,0,0.3,0.1
			c0.1,0,0.2,0,0.3,0c0.2,0,0.3,0,0.5,0c0.1,0,0.3-0.1,0.4-0.1c0.1-0.1,0.2-0.1,0.3-0.2c0.1-0.1,0.1-0.2,0.2-0.2
			c0-0.1,0.1-0.2,0.1-0.3s0-0.2,0-0.3s0-0.2-0.1-0.3C11.9,12.4,11.9,12.3,11.8,12.2z"/>
		<polygon class="st3" points="5.3,13.3 5.3,13.3 5.3,12.3 6.5,12.3 6.5,11.7 5.3,11.7 5.3,10.7 6.5,10.7 6.5,10 4.5,10 4.5,14 
			6.6,14 6.6,13.3 		"/>
	</g>
	<g>
		<path class="st3" d="M11,5V2H6v6h1V7h1v1h1.6l2.1-2H13v2h1V5H11z M8,6H7V5h1V6z M8,4H7V3h1V4z"/>
		<polygon class="st3" points="12,8 12,7 11,8 		"/>
	</g>
</g>
</svg>
