<?xml version="1.0" encoding="utf-8"?>
<!-- Generator: Adobe Illustrator 26.5.3, SVG Export Plug-In . SVG Version: 6.00 Build 0)  -->
<svg version="1.1" id="Layer_1" xmlns="http://www.w3.org/2000/svg" xmlns:xlink="http://www.w3.org/1999/xlink" x="0px" y="0px"
	 viewBox="0 0 16 16" style="enable-background:new 0 0 16 16;" xml:space="preserve">
<style type="text/css">
	.st0{fill:#252526;fill-opacity:0;}
	.st1{fill:#252526;}
	.st2{fill:#C5C5C5;}
	.st3{fill:#4BD2FF;}
</style>
<g id="outline">
	<rect class="st0" width="16" height="16"/>
	<path class="st1" d="M10,1H6.4l-1-1H0.6l2,2H0v4h2.6l-2,2H2v5c0,1.3,1,2,2,2h8c1.4,0,2-1.2,2-2V4.6L10,1z"/>
</g>
<g id="icon_x5F_bg">
	<path class="st2" d="M9.6,2H7.4l1,1H9v0.6v0.8V6h3v7H4V8H3c0,1.9,0,3.9,0,5c0,1,1,1,1,1s7,0,8,0s1-1,1-1V5L9.6,2z"/>
</g>
<g id="color_x5F_action">
	<polygon class="st3" points="5,1 3,1 5,3 1,3 1,5 5,5 3,7 5,7 8,4 	"/>
</g>
<g id="icon_x5F_fg">
	<polygon class="st1" points="9,3 8.4,3 9,3.6 	"/>
	<polygon class="st1" points="9,6 9,4.4 5.4,8 4.4,8 4,8 4,13 12,13 12,6 	"/>
</g>
</svg>
