<?xml version="1.0" encoding="utf-8"?>
<!-- Generator: Adobe Illustrator 26.5.3, SVG Export Plug-In . SVG Version: 6.00 Build 0)  -->
<svg version="1.1" id="Layer_1" xmlns="http://www.w3.org/2000/svg" xmlns:xlink="http://www.w3.org/1999/xlink" x="0px" y="0px"
	 viewBox="0 0 16 16" style="enable-background:new 0 0 16 16;" xml:space="preserve">
<style type="text/css">
	.st0{fill-rule:evenodd;clip-rule:evenodd;fill:#252526;fill-opacity:0;}
	.st1{fill-rule:evenodd;clip-rule:evenodd;fill:#252526;}
	.st2{fill:#4BD2FF;}
	.st3{fill:#252526;}
</style>
<g id="outline">
	<rect class="st0" width="16" height="16"/>
	<polygon class="st1" points="2,14.4 2,1.7 13,0.1 13,16 	"/>
</g>
<g id="color_x5F_decoration">
	<polygon class="st2" points="3,2.6 3,13.5 12,14.8 12,1.2 	"/>
</g>
<g id="not_x5F_fg">
	<path class="st3" d="M9.3,5.3L8.7,8.9c0,0,0,0.1,0,0.1c0,0,0,0.1,0,0.1c0,0,0-0.1,0-0.1c0,0.1,0-0.1,0-0.1h0c0,0,0,0.1,0,0.1
		c0-0.1,0,0,0,0c0,0,0,0,0-0.1c0,0,0,0,0-0.1L7.9,5.3l-1,0.1L6.1,8.8c0,0.1,0,0.1,0,0.2c0,0.1,0,0.1,0,0.1c0,0.1,0-0.1,0-0.1
		c0,0,0-0.1,0-0.1h0c0,0,0,0.1,0,0C6,9,6,9,6,9c0,0,0,0,0-0.1c0,0,0-0.1,0-0.1L5.4,5.5L4.5,5.6l1,4.9l1,0.1l0.7-3.3c0,0,0-0.1,0-0.1
		c0,0,0-0.1,0-0.1c0,0,0-0.1,0-0.2c0-0.1,0-0.1,0-0.2l0,0c0,0.1,0,0.1,0,0.2c0,0.1,0,0.1,0,0.2c0,0,0,0.1,0,0.1c0,0,0,0.1,0,0.1
		l0.7,3.4l1.1,0.1l1.2-5.5L9.3,5.3z"/>
</g>
</svg>
