<?xml version="1.0" encoding="utf-8"?>
<!-- Generator: Adobe Illustrator 26.5.3, SVG Export Plug-In . SVG Version: 6.00 Build 0)  -->
<svg version="1.1" id="Layer_1" xmlns="http://www.w3.org/2000/svg" xmlns:xlink="http://www.w3.org/1999/xlink" x="0px" y="0px"
	 viewBox="0 0 16 16" style="enable-background:new 0 0 16 16;" xml:space="preserve">
<style type="text/css">
	.st0{fill-rule:evenodd;clip-rule:evenodd;fill:#F6F6F6;fill-opacity:0;}
	.st1{fill-rule:evenodd;clip-rule:evenodd;fill:#F6F6F6;}
	.st2{fill-rule:evenodd;clip-rule:evenodd;fill:#87FF5F;}
	.st3{fill:#FFFFFF;}
</style>
<g id="outline">
	<rect class="st0" width="16" height="16"/>
	<polygon class="st1" points="13,16 13,0.2 2,1.9 2,14.5 11.9,16 	"/>
</g>
<g id="color_x5F_decoration">
	<path class="st2" d="M3,2.7v10.9l9,1.4V1.4L3,2.7z M8.2,11.9L7.1,9.5c0,0,0,0,0-0.1V9.3V9.2C7,9.1,7,9,7,9l0,0v0.1v0.1v0.1
		c0,0,0,0.1-0.1,0.2l-1,2.2l-1.5-0.1l1.8-3.4L4.4,4.8L6,4.7l1,2.7c0,0,0.1-0.3,0.1-0.4s0-0.1,0.1-0.1c0-0.1,0-0.1,0.1-0.2l1-2.2
		l1.6-0.1l-2,3.8l2,3.8L8.2,11.9z"/>
</g>
<g id="not_x5F_fg">
	<path class="st3" d="M9.8,4.5L8.2,4.6l-1,2.2c0,0.1,0,0.1-0.1,0.2c0,0.1,0,0.1-0.1,0.2c0,0.1,0,0.1,0,0.1v0.1l0,0
		c0-0.1,0-0.1,0-0.2S7,7.1,7,7V6.9c0,0,0-0.1-0.1-0.1l-1-2L4.4,4.9l1.7,3.4l-1.8,3.4l1.5,0.1l1-2.2c0-0.1,0-0.1,0.1-0.2V9.3V9.2V9.1
		l0,0c0,0.1,0,0.1,0,0.2v0.1v0.1v0.1L8,12l1.9,0l-2-3.8L9.8,4.5"/>
</g>
</svg>
