<?xml version="1.0" encoding="utf-8"?>
<!-- Generator: Adobe Illustrator 26.5.3, SVG Export Plug-In . SVG Version: 6.00 Build 0)  -->
<svg version="1.1" id="Layer_1" xmlns="http://www.w3.org/2000/svg" xmlns:xlink="http://www.w3.org/1999/xlink" x="0px" y="0px"
	 viewBox="0 0 16 16" style="enable-background:new 0 0 16 16;" xml:space="preserve">
<style type="text/css">
	.st0{fill:#252526;fill-opacity:0;}
	.st1{fill-rule:evenodd;clip-rule:evenodd;fill:#252526;}
	.st2{fill:#4BD2FF;}
	.st3{fill:#252526;}
</style>
<g id="outline">
	<rect class="st0" width="16" height="16"/>
	<polygon class="st1" points="3,14.3 3,1.7 14.1,0 14.1,16 	"/>
</g>
<g id="color_x5F_decoration">
	<path class="st2" d="M4,2.5v10.9l9,1.4V1.2L4,2.5z M9.3,12l-1.6-0.1L5.5,4l1.5,0l1.3,5.5c0.1,0.3,0.1,0.6,0.1,0.8l0,0
		c0-0.3,0.1-0.5,0.1-0.8L10,4.1l1.5,0L9.3,12z"/>
</g>
<g id="not_x5F_fg">
	<path class="st3" d="M11.5,4.1L9.3,12l-1.6-0.1L5.5,4l1.5,0l1.3,5.5c0.1,0.3,0.1,0.6,0.1,0.8l0,0c0-0.3,0.1-0.5,0.1-0.8L10,4.1
		L11.5,4.1z"/>
</g>
</svg>
