<?xml version="1.0" encoding="utf-8"?>
<!-- Generator: Adobe Illustrator 26.5.3, SVG Export Plug-In . SVG Version: 6.00 Build 0)  -->
<svg version="1.1" id="Layer_1" xmlns="http://www.w3.org/2000/svg" xmlns:xlink="http://www.w3.org/1999/xlink" x="0px" y="0px"
	 viewBox="0 0 16 16" style="enable-background:new 0 0 16 16;" xml:space="preserve">
<style type="text/css">
	.st0{fill:#252526;fill-opacity:0;}
	.st1{fill-rule:evenodd;clip-rule:evenodd;fill:#252526;}
	.st2{fill-rule:evenodd;clip-rule:evenodd;fill:#FF6767;}
	.st3{fill:#252526;}
</style>
<g id="outline">
	<rect class="st0" width="16" height="16"/>
	<polygon class="st1" points="3,14.3 3,1.7 14,0 14,16 	"/>
</g>
<g id="color_x5F_decoration">
	<g>
		<path class="st2" d="M4,2.5v10.9l9,1.4V1.2L4,2.5z M10,11.5L9.5,9.8L7.4,9.7L7,11.3l-1.4-0.1l2-7.2l1.6-0.1l2.3,7.7L10,11.5z"/>
		<path class="st2" d="M8.6,5.6c0-0.1,0-0.1,0-0.2c0-0.1,0-0.2,0-0.2c0-0.1,0-0.2,0-0.2h0c0,0,0,0.2,0,0.2c0,0.1,0,0.1,0,0.2
			c0,0.1,0,0.1,0,0.2c0,0.1,0,0.1,0,0.2L7.6,8.6l0.1-0.2l1.6,0.2L8.6,5.8C8.6,5.8,8.6,5.7,8.6,5.6z"/>
	</g>
</g>
<g id="not_x5F_fg">
	<g>
		<path class="st3" d="M7.6,8.6l0.7-2.8c0-0.1,0-0.1,0-0.2s0-0.1,0-0.2c0-0.1,0-0.1,0-0.2c0-0.1,0-0.1,0-0.2l0,0c0,0.1,0,0.1,0,0.2
			c0,0.1,0,0.1,0,0.2c0,0.1,0,0.1,0,0.2c0,0.1,0,0.1,0,0.2l0.7,2.8L7.7,8.4 M9.3,3.9L7.7,4l-2,7.2L7,11.3l0.4-1.6l2.1,0.1l0.4,1.7
			l1.6,0.1L9.3,3.9"/>
	</g>
</g>
</svg>
