<?xml version="1.0" encoding="utf-8"?>
<!-- Generator: Adobe Illustrator 26.5.3, SVG Export Plug-In . SVG Version: 6.00 Build 0)  -->
<svg version="1.1" id="Layer_1" xmlns="http://www.w3.org/2000/svg" xmlns:xlink="http://www.w3.org/1999/xlink" x="0px" y="0px"
	 viewBox="0 0 16 16" style="enable-background:new 0 0 16 16;" xml:space="preserve">
<style type="text/css">
	.st0{fill-rule:evenodd;clip-rule:evenodd;fill:#252526;fill-opacity:0;}
	.st1{fill-rule:evenodd;clip-rule:evenodd;fill:#252526;}
	.st2{fill:#FF6767;}
	.st3{fill:#252526;}
</style>
<g id="outline">
	<rect class="st0" width="16" height="16"/>
	<polygon class="st1" points="3,14.3 3,1.7 14.1,0 14.1,16 	"/>
</g>
<g id="color_x5F_decoration">
	<g>
		<path class="st2" d="M9.2,5.6C9.1,5.5,9,5.4,8.8,5.4c-0.2,0-0.4-0.1-0.6-0.1l-0.6,0v2.6l0.6,0c0.2,0,0.4,0,0.6-0.1
			C9,7.8,9.1,7.7,9.2,7.6c0.1-0.1,0.2-0.2,0.3-0.4C9.5,7,9.6,6.8,9.6,6.6c0-0.2,0-0.4-0.1-0.6C9.4,5.8,9.3,5.7,9.2,5.6z"/>
		<path class="st2" d="M4,2.5v10.9l9,1.4V1.2L4,2.5z M11.3,7.1c0,0.2-0.1,0.4-0.2,0.5C11.1,7.8,11,8,10.9,8.1
			c-0.1,0.1-0.2,0.3-0.4,0.4c-0.1,0.1-0.3,0.3-0.5,0.4C10,9,9.8,9.1,9.6,9.1C9.4,9.2,9.2,9.2,9,9.3c-0.2,0-0.4,0-0.6,0l-0.8,0v2.8
			L6,12V4l2.5-0.1c0.5,0,0.9,0,1.2,0.1c0.4,0.1,0.7,0.2,0.9,0.5c0.2,0.2,0.4,0.5,0.6,0.8s0.2,0.7,0.2,1.2
			C11.4,6.7,11.4,6.9,11.3,7.1z"/>
	</g>
</g>
<g id="not_x5F_fg">
	<path class="st3" d="M7.6,7.9V5.4l0.6,0c0.2,0,0.4,0,0.6,0.1c0.2,0,0.3,0.1,0.4,0.2C9.3,5.7,9.4,5.8,9.5,6c0.1,0.2,0.1,0.3,0.1,0.6
		c0,0.2,0,0.4-0.1,0.6C9.4,7.3,9.3,7.5,9.2,7.6C9.1,7.7,9,7.8,8.8,7.8C8.6,7.9,8.4,7.9,8.2,7.9L7.6,7.9 M8.5,3.9L6,4v8l1.6,0.1V9.3
		l0.8,0c0.2,0,0.4,0,0.6,0c0.2,0,0.4-0.1,0.6-0.1C9.8,9.1,10,9,10.1,8.9c0.2-0.1,0.3-0.2,0.5-0.4c0.1-0.1,0.3-0.3,0.4-0.4
		C11,8,11.1,7.8,11.2,7.6s0.1-0.4,0.2-0.5c0-0.2,0.1-0.4,0.1-0.6c0-0.5-0.1-0.9-0.2-1.2c-0.1-0.3-0.3-0.6-0.6-0.8
		C10.4,4.2,10.1,4.1,9.7,4C9.4,3.9,9,3.9,8.5,3.9"/>
</g>
</svg>
