<?xml version="1.0" encoding="utf-8"?>
<!-- Generator: Adobe Illustrator 26.5.3, SVG Export Plug-In . SVG Version: 6.00 Build 0)  -->
<svg version="1.1" id="Layer_1" xmlns="http://www.w3.org/2000/svg" xmlns:xlink="http://www.w3.org/1999/xlink" x="0px" y="0px"
	 viewBox="0 0 16 16" style="enable-background:new 0 0 16 16;" xml:space="preserve">
<style type="text/css">
	.st0{fill:#C5C5C5;}
	.st1{fill:#252526;}
	.st2{fill:#FF6767;}
</style>
<g id="icon_x5F_bg">
	<g>
		<path class="st0" d="M11.6,1H6c0,0-1,0-1,1c0,0.5,0,3.3,0,6h1V2h5v3h3v3v1v3v1c1,0,1-1,1-1V4L11.6,1z"/>
	</g>
</g>
<g id="icon_x5F_fg">
	<g>
		<path class="st1" d="M6,2v6h8V5h-3V2"/>
	</g>
	<path class="st2" d="M1,9v6h12V9H1z M3,13v1H2v-4h1.7c0.4,0,0.7,0.3,1,0.6c0.2,0.2,0.4,0.6,0.4,1s-0.1,0.7-0.4,0.9
		c-0.2,0.2-0.6,0.5-1,0.5L3,13L3,13z M3,12.1h0.5c0.1,0,0.3-0.1,0.3-0.2C4,11.9,4,11.7,4,11.5c0-0.2,0-0.4-0.1-0.5
		c-0.1-0.1-0.2-0.2-0.3-0.2H3V12.1z M6,14v-4h1.2c0.5,0,1,0.1,1.3,0.4C8.8,10.7,9,11.1,9,11.7v0.6c0,0.5-0.2,0.9-0.5,1.2
		S7.8,14,7.2,14H6z M7,10.7v2.7h0.3c0.3,0,0.5-0.1,0.6-0.2C8,13,8.1,12.7,8.1,12.4v-0.7c0-0.4-0.1-0.6-0.2-0.8
		c-0.1-0.1-0.3-0.2-0.5-0.2C7.3,10.7,7,10.7,7,10.7z M12,12.7h-1V14h-1v-4h2v1h-1v1h1V12.7z"/>
</g>
</svg>
