<?xml version="1.0" encoding="utf-8"?>
<!-- Generator: Adobe Illustrator 26.5.3, SVG Export Plug-In . SVG Version: 6.00 Build 0)  -->
<svg version="1.1" id="Layer_1" xmlns="http://www.w3.org/2000/svg" xmlns:xlink="http://www.w3.org/1999/xlink" x="0px" y="0px"
	 viewBox="0 0 16 16" style="enable-background:new 0 0 16 16;" xml:space="preserve">
<style type="text/css">
	.st0{fill:#252526;fill-opacity:0;}
	.st1{fill:#252526;}
	.st2{fill:#14FFAF;}
</style>
<g id="outline">
	<rect class="st0" width="16" height="16"/>
	<path class="st1" d="M15,3h-3.5l-0.9,1.8L9.7,3H5.3l0,0C5.1,3,4.9,3,4.7,3H1v9h3.7V9.6c1.1,0,1.9-0.3,2.6-0.9
		C7.6,8.5,7.9,8.2,8,7.9l0.5,0.9V12h3.8V8.8L15,4.3V3z"/>
</g>
<g id="color_x5F_importance">
	<g>
		<path class="st2" d="M4.7,4H2v7h1.7V8.6h0.8c0.9,0,1.6-0.2,2.2-0.7c0.5-0.4,0.8-1,0.8-1.7C7.5,4.7,6.6,4,4.7,4z M4.4,7.4H3.7V5.2
			h0.7c0.9,0,1.4,0.4,1.4,1.1C5.7,7,5.3,7.4,4.4,7.4z"/>
		<path class="st2" d="M12.1,4l-1.3,2.6c-0.1,0.1-0.1,0.3-0.2,0.6h0c-0.1-0.3-0.2-0.5-0.2-0.6L9.1,4H7l2.6,4.5V11h1.8V8.5L14,4H12.1
			z"/>
	</g>
</g>
</svg>
