<?xml version="1.0" encoding="utf-8"?>
<!-- Generator: Adobe Illustrator 26.5.3, SVG Export Plug-In . SVG Version: 6.00 Build 0)  -->
<svg version="1.1" id="Layer_1" xmlns="http://www.w3.org/2000/svg" xmlns:xlink="http://www.w3.org/1999/xlink" x="0px" y="0px"
	 viewBox="0 0 16 16" style="enable-background:new 0 0 16 16;" xml:space="preserve">
<style type="text/css">
	.st0{fill:#F6F6F6;}
	.st1{fill:#FF6767;}
</style>
<path class="st0" d="M16,8c0,0.3,0,0.6-0.1,0.9l-0.1,0.6l-2.2,0.8l1,2.1L14.3,13c-0.4,0.5-0.8,0.9-1.3,1.3l-0.5,0.4l-2.1-1l-0.8,2.2
	l-0.6,0.1C8.6,16,8.3,16,8,16c-0.3,0-0.6,0-0.9-0.1l-0.6-0.1l-0.8-2.2l-2.1,1L3,14.3c-0.5-0.4-0.9-0.8-1.3-1.3l-0.4-0.5l1-2.1
	L0.1,9.5L0.1,8.9C0,8.6,0,8.3,0,8s0-0.6,0.1-0.9l0.1-0.6l2.2-0.8l-1-2.1L1.7,3C2.1,2.6,2.6,2.1,3,1.7l0.5-0.4l2.1,1l0.8-2.2l0.6-0.1
	C7.4,0,7.7,0,8,0c0.3,0,0.6,0,0.9,0.1l0.6,0.1l0.8,2.2l2.1-1L13,1.7c0.5,0.4,0.9,0.8,1.3,1.3l0.4,0.5l-1,2.1l2.2,0.8l0.1,0.6
	C16,7.4,16,7.7,16,8z"/>
<path class="st1" d="M14.9,8.8C15,8.5,15,8.3,15,8s0-0.5-0.1-0.8l-2.2-0.8c-0.1-0.2-0.1-0.4-0.2-0.6l1-2.1c-0.3-0.4-0.7-0.8-1.1-1.1
	l-2.1,1C10,3.4,9.8,3.4,9.6,3.3L8.8,1C8.5,1,8.3,1,8,1C7.7,1,7.5,1,7.2,1L6.4,3.3C6.2,3.4,6,3.4,5.8,3.5l-2.1-1
	C3.2,2.9,2.9,3.2,2.5,3.7l1,2.1C3.4,6,3.4,6.2,3.3,6.4L1,7.2C1,7.5,1,7.7,1,8s0,0.5,0,0.8l2.2,0.8c0.1,0.2,0.2,0.4,0.2,0.6l-1,2.1
	c0.3,0.4,0.7,0.8,1.1,1.1l2.1-1c0.2,0.1,0.4,0.2,0.6,0.2l0.8,2.2C7.5,15,7.7,15,8,15c0.3,0,0.5,0,0.8-0.1l0.8-2.2
	c0.2-0.1,0.4-0.1,0.6-0.2l2.1,1c0.4-0.3,0.8-0.7,1.1-1.1l-1-2.1c0.1-0.2,0.2-0.4,0.2-0.6L14.9,8.8z M8,12c-2.2,0-4-1.8-4-4
	s1.8-4,4-4s4,1.8,4,4S10.2,12,8,12z"/>
<path class="st1" d="M8,9.5H7.2V8.7H8c0.1,0,0.4,0,0.5,0.7c0,0.2,0.1,0.8,0.2,1c0,0.2,0.2,0.7,0.5,0.7h1.2c0.4-0.7,0.6-1.5,0.6-2.5
	h-0.3c0,0,0,0,0,0.1v0.2c0,0.5-0.2,0.6-0.4,0.7c-0.2,0-0.3-0.1-0.4-0.3C9.9,8.4,9.8,8.3,9.5,8c0.3-0.3,0.6-0.8,0.6-1.4
	c0-0.6-0.3-1.1-0.5-1.3C9.3,5.1,9,5,8.9,5H5.7C5.5,5.4,5.1,6,5,6.5h0.8v3L5,9.5c0.1,0.6,0.3,1,0.5,1.5H8V9.5z M8.2,7.4h-1V6.5h1.1
	c0.1,0,0.4,0.1,0.4,0.5C8.7,7.3,8.4,7.4,8.2,7.4z"/>
</svg>
