<?xml version="1.0" encoding="utf-8"?>
<!-- Generator: Adobe Illustrator 26.5.3, SVG Export Plug-In . SVG Version: 6.00 Build 0)  -->
<svg version="1.1" id="Layer_1" xmlns="http://www.w3.org/2000/svg" xmlns:xlink="http://www.w3.org/1999/xlink" x="0px" y="0px"
	 viewBox="0 0 16 16" style="enable-background:new 0 0 16 16;" xml:space="preserve">
<style type="text/css">
	.st0{fill:#252526;fill-opacity:0;}
	.st1{fill:#252526;}
	.st2{fill:#FFB95A;}
	.st3{fill:#C5C5C5;}
</style>
<g id="outline">
	<rect class="st0" width="16" height="16"/>
	<path class="st1" d="M14,0H6.9l-1,2H3C2,2,1,2.7,1,4v2H0v1.2L0.7,9C0.3,9.8,0,10.6,0,11.5C0,14,2,16,4.5,16c2,0,3.6-1.3,4.2-3H14
		c0,0,0.9,0,1.4-0.6c0.3-0.3,0.6-0.8,0.6-1.4V2C16,0.7,15,0,14,0z"/>
</g>
<g>
	<path class="st2" d="M14,1H7.5l-1,2H3c0.2,0-1,0-1,1s0,3,0,3H1l0.5,1.2C2.3,7.5,3.3,7,4.5,7H3V4h4l1-2h6v10c0,0,1,0,1-1
		c0-0.8,0-6.6,0-9C15,1,14,1,14,1z"/>
	<path class="st2" d="M9,11.5c0,0.2,0,0.3-0.1,0.5H14l-3-5H4.5C7,7,9,9,9,11.5z"/>
</g>
<path class="st3" d="M4.5,8C2.6,8,1,9.6,1,11.5S2.6,15,4.5,15S8,13.4,8,11.5S6.4,8,4.5,8z M7,11.5C7,12.9,5.9,14,4.5,14
	S2,12.9,2,11.5S3.1,9,4.5,9S7,10.1,7,11.5z M6,11.5C6,12.3,5.3,13,4.5,13S3,12.3,3,11.5S3.7,10,4.5,10S6,10.7,6,11.5z"/>
<g id="icon_x5F_fg">
	<polygon class="st1" points="3,7 3,4 7,4 8,2 14,2 14,12 11,7 	"/>
</g>
</svg>
