<?xml version="1.0" encoding="utf-8"?>
<!-- Generator: Adobe Illustrator 26.5.3, SVG Export Plug-In . SVG Version: 6.00 Build 0)  -->
<svg version="1.1" id="Layer_1" xmlns="http://www.w3.org/2000/svg" xmlns:xlink="http://www.w3.org/1999/xlink" x="0px" y="0px"
	 viewBox="0 0 16 16" style="enable-background:new 0 0 16 16;" xml:space="preserve">
<style type="text/css">
	.st0{fill:#F6F6F6;fill-opacity:0;}
	.st1{fill:#F6F6F6;}
	.st2{fill:#656565;}
	.st3{fill:#BD1E2D;}
	.st4{display:none;fill:#F3F3F3;}
	.st5{fill:#F3F3F3;}
	.st6{fill:#FF5164;}
</style>
<g id="outline">
	<rect class="st0" width="16" height="16"/>
	<path class="st1" d="M4,15c-1,0-2-0.7-2-2V3c0-1.3,1-2,2-2h6.1L14,4.6V13c0,1-0.7,2-2,2H4z"/>
</g>
<g id="icon_x5F_bg">
	<path class="st2" d="M9.6,2H4c0,0-1,0-1,1c0,0.8,0,7.4,0,10c0,1,1,1,1,1s7,0,8,0s1-1,1-1V5L9.6,2z M12,13H4V3h5v3h3V13z"/>
	<rect x="5" y="4" class="st2" width="1" height="1"/>
	<rect x="5" y="6" class="st2" width="1" height="1"/>
	<rect x="5" y="8" class="st2" width="1" height="1"/>
	<path class="st3" d="M9.7,7l-5.3,5h1.4L7,11h3v1h1V7H9.7z M10,10H8l2-2V10z"/>
	<polygon class="st4" points="4,3 9,3 9,5 12,5 12,13 4,13 	"/>
</g>
<g id="icon_x5F_fg">
	<g>
		<polygon class="st5" points="10,10 10,8 8,10 		"/>
		<path class="st5" d="M9,6V3H4v10h3h2h3V6H9z M5,4h1v1H5V4z M5,6h1v1H5V6z M5,8h1v1H5V8z M11,12h-1v-1H7l-1.2,1H4.4l5.3-5H11V12z"
			/>
	</g>
	<rect x="5" y="4" class="st2" width="1" height="1"/>
	<rect x="5" y="6" class="st2" width="1" height="1"/>
	<rect x="5" y="8" class="st2" width="1" height="1"/>
	<path class="st6" d="M9.7,7l-5.3,5h1.4L7,11h3v1h1V7H9.7z M10,10H8l2-2V10z"/>
</g>
</svg>
