<?xml version="1.0" encoding="utf-8"?>
<!-- Generator: Adobe Illustrator 26.5.3, SVG Export Plug-In . SVG Version: 6.00 Build 0)  -->
<svg version="1.1" id="Layer_1" xmlns="http://www.w3.org/2000/svg" xmlns:xlink="http://www.w3.org/1999/xlink" x="0px" y="0px"
	 viewBox="0 0 16 16" style="enable-background:new 0 0 16 16;" xml:space="preserve">
<style type="text/css">
	.st0{fill:#252526;fill-opacity:0;}
	.st1{fill:#252526;}
	.st2{fill:#FF6767;}
</style>
<g id="outline">
	<rect class="st0" width="16" height="16"/>
	<path class="st1" d="M13.9,7.3l0.3,0.2V3.6l-0.7-0.2C12.9,3.1,12.2,3,11.3,3c-1.1,0-1.9,0.2-2.6,0.7c-0.1,0-0.1,0.1-0.2,0.1V3H1
		v3.3h2V12h3.6V6.3h1c0,0.3,0.1,0.7,0.3,1.1L7.6,7.1v4.1l0.6,0.3c0.7,0.3,1.5,0.5,2.4,0.5c1.3,0,2.3-0.3,3-0.9c0.6-0.5,1-1.3,1-2.1
		C14.5,8.3,14.3,7.8,13.9,7.3z"/>
</g>
<g id="color_x5F_importance">
	<g>
		<path class="st2" d="M7.6,5.3h-2V11H4V5.3H2V4h5.6V5.3z"/>
		<path class="st2" d="M13.5,9c0,0.6-0.2,1-0.6,1.4c-0.5,0.4-1.3,0.6-2.4,0.6c-0.8,0-1.5-0.1-2-0.4V9.1c0.6,0.5,1.3,0.7,2,0.7
			c0.4,0,0.7-0.1,0.9-0.2c0.2-0.1,0.2-0.3,0.2-0.5c0-0.2-0.1-0.4-0.4-0.6c-0.2-0.1-0.5-0.3-1.1-0.5C9.1,7.5,8.5,6.8,8.5,6
			c0-0.6,0.3-1.1,0.8-1.5c0.5-0.4,1.2-0.5,2-0.5c0.7,0,1.4,0.1,1.9,0.3v1.4c-0.5-0.3-1.1-0.5-1.8-0.5c-0.3,0-0.6,0.1-0.8,0.2
			s-0.3,0.3-0.3,0.5c0,0.2,0.1,0.4,0.3,0.5c0.2,0.1,0.5,0.3,0.9,0.5c0.7,0.3,1.2,0.6,1.5,0.8C13.4,8.1,13.5,8.5,13.5,9z"/>
	</g>
</g>
</svg>
