<?xml version="1.0" encoding="utf-8"?>
<!-- Generator: Adobe Illustrator 26.5.3, SVG Export Plug-In . SVG Version: 6.00 Build 0)  -->
<svg version="1.1" id="Layer_1" xmlns="http://www.w3.org/2000/svg" xmlns:xlink="http://www.w3.org/1999/xlink" x="0px" y="0px"
	 viewBox="0 0 16 16" style="enable-background:new 0 0 16 16;" xml:space="preserve">
<style type="text/css">
	.st0{fill:#F6F6F6;fill-opacity:0;}
	.st1{fill:#F6F6F6;}
	.st2{fill:#656565;}
	.st3{fill:#F3F3F3;}
	.st4{fill:#9B78FF;}
</style>
<g id="canvas">
	<path class="st0" d="M16,16H0V0h16V16z"/>
</g>
<g id="outline">
	<path class="st1" d="M12.4,0H4.9C4,0.1,3,0.7,3,1.9v4.7l-2,2v4.8l2,2l2-2L7.6,16h0.7l2-1h3.8c0.2,0,0.7,0,1.1-0.3
		C15.5,14.5,16,14,16,13V3.7L12.4,0z"/>
</g>
<g id="iconBg">
	<path class="st2" d="M15,13c0,1.1-1,1-1,1h-1h-2v-1h3V5h-3V2H5v6.5l0,0l-1-1c0,0,0-4.8,0-5.7C4,1.1,5,1,5,1h7l3,3.1
		C15,4.1,15,12.1,15,13z M7,5h3V4H7V5z M10,6.9V6H8.2L10,6.9z M7,6.6L7.6,6H7V6.6z M11,11h1v-1h-1V11z M11,9h1V8h-1V9z M12,6h-1v1h1
		V6z"/>
</g>
<g id="iconFg">
	<path class="st3" d="M11,5V2H5v6.6l2-2V6h0.6l0.2-0.2L8.2,6H10v0.9l1,0.5V8h1v1h-1v1h1v1h-1v2h3V5H11z M10,5H7V4h3V5z M12,7h-1V6h1
		V7z M3,12v-2l1,1L3,12z M6,11l2-2v4L6,11z"/>
</g>
<g id="colorImportance">
	<path class="st4" d="M8,7l-3,3L3,8L2,9v4l1,1l2-2l3,3l2-1V8L8,7z M3,12v-2l1,1L3,12z M6,11l2-2v4L6,11z"/>
</g>
</svg>
