<?xml version="1.0" encoding="utf-8"?>
<!-- Generator: Adobe Illustrator 26.5.3, SVG Export Plug-In . SVG Version: 6.00 Build 0)  -->
<svg version="1.1" id="Layer_1" xmlns="http://www.w3.org/2000/svg" xmlns:xlink="http://www.w3.org/1999/xlink" x="0px" y="0px"
	 viewBox="0 0 16 16" style="enable-background:new 0 0 16 16;" xml:space="preserve">
<style type="text/css">
	.st0{fill:#252526;fill-opacity:0;}
	.st1{fill:#252526;}
	.st2{fill:#FFBE41;}
	.st3{fill:#C5C5C5;}
</style>
<path id="canvas" class="st0" d="M16,16H0V0h16V16z"/>
<path id="outline" class="st1" d="M16,3v9c0,0.6-0.2,1.1-0.6,1.4C14.9,13.9,14,14,14,14H9.8c-1,1.2-2.5,2-4.3,2
	c-3,0-5.5-2.5-5.5-5.5c0-0.6,0.1-1.1,0.3-1.7L0,8.2V7h1V5c0-1.3,1-2,2-2h2.9l1-2H14C15,1,16,1.7,16,3z"/>
<g id="iconBg">
	<path class="st2" d="M10.4,8c0.4,0.8,0.6,1.6,0.6,2.5s-0.2,1.7-0.6,2.5H14l-3-5H10.4z"/>
	<path class="st2" d="M14,2H7.5l-1,2H3c0.2,0-1,0-1,1v1.3C2.3,6,2.6,5.8,3,5.6V5h4l1-2h6v10c0,0,1,0,1-1V3C15,2,14,2,14,2z"/>
</g>
<path id="iconFg" class="st1" d="M8,3L7,5H3v0.6C3.8,5.2,4.6,5,5.5,5c2.1,0,4,1.2,4.9,3H11l3,5V3H8z"/>
<g id="colorImportance">
	<path class="st3" d="M10,10.5v-0.2C9.9,7.9,7.9,6,5.5,6C3,6,1,8,1,10.5v0.4v0.3l0,0c0.3,1.9,1.8,3.4,3.7,3.7l0,0H5h0.4h0.4
		C8.2,14.8,10,12.8,10,10.5z M7.4,9.4c0.5-0.1,1-0.2,1.5-0.4c0.2,0.4,0.3,0.9,0.3,1.5v0.2c-0.7,0.3-1.3,0.5-1.8,0.6
		c0.1-0.4,0.1-0.8,0.1-1.1C7.5,9.9,7.4,9.7,7.4,9.4z M8.6,8.4C8.1,8.6,7.7,8.7,7.3,8.7C7.2,8.1,6.9,7.5,6.7,7
		C7.5,7.3,8.1,7.8,8.6,8.4z M5.5,14.2H5.2c-0.3-0.7-0.6-1.4-0.7-2.1c0.3,0,0.7,0.1,1,0.1h0.3c0.2,0,0.4,0,0.7,0
		C6.2,12.7,5.9,13.4,5.5,14.2L5.5,14.2z M5.5,11.4c-0.4,0-0.8,0-1.2-0.1c-0.1-0.4-0.1-0.8-0.1-1.2c0-0.2,0-0.5,0-0.7
		c0.4,0,0.8,0.1,1.2,0.1h0.3c0.3,0,0.6,0,1,0c0,0.2,0,0.5,0,0.7c0,0.4,0,0.8-0.1,1.2C6.2,11.4,5.9,11.4,5.5,11.4z M5.5,6.8h0.3
		c0.3,0.5,0.6,1.2,0.8,2c-0.4,0-0.7,0-1.1,0s-0.8,0-1.1-0.1C4.5,8,4.8,7.3,5,6.8C5.2,6.8,5.3,6.8,5.5,6.8z M4.2,7.1
		C4,7.5,3.8,8.1,3.7,8.7C3.2,8.6,2.8,8.5,2.5,8.4C2.9,7.8,3.5,7.3,4.2,7.1z M1.8,10.5c0-0.5,0.1-1,0.3-1.5C2.6,9.1,3,9.3,3.6,9.4
		c0,0.3,0,0.5,0,0.8s0,0.7,0.1,1.1C3,11.2,2.4,11,1.9,10.8C1.8,10.8,1.8,10.5,1.8,10.5z M2,11.5c0.5,0.2,1.1,0.3,1.8,0.4
		c0.1,0.7,0.3,1.4,0.6,2.1C3.2,13.6,2.3,12.7,2,11.5z M6.4,14.1C6.7,13.3,7,12.7,7.2,12c0.6,0,1.2-0.2,1.8-0.4
		C8.7,12.8,7.7,13.8,6.4,14.1z"/>
</g>
</svg>
