<?xml version="1.0" encoding="utf-8"?>
<!-- Generator: Adobe Illustrator 26.5.3, SVG Export Plug-In . SVG Version: 6.00 Build 0)  -->
<svg version="1.1" id="Layer_1" xmlns="http://www.w3.org/2000/svg" xmlns:xlink="http://www.w3.org/1999/xlink" x="0px" y="0px"
	 viewBox="0 0 16 16" style="enable-background:new 0 0 16 16;" xml:space="preserve">
<style type="text/css">
	.st0{fill:#252526;fill-opacity:0;}
	.st1{fill:#252526;}
	.st2{fill:#C5C5C5;}
	.st3{fill:#41D7FF;}
</style>
<g id="canvas">
	<path class="st0" d="M16,16H0V0h16V16z"/>
</g>
<g id="outline">
	<path class="st1" d="M15,5V4h-1V0H9H3.6L0,3.6V4h2.6L0,6.6V15h7v-3H6v-1h2V9h3V7h1v2h4V5H15z M5,8H3.4L5,6.4V8z M7,8H6.4L7,7.4V8z"
		/>
</g>
<g id="iconBg">
	<path class="st2" d="M14,6V5h-2V4h1V1h-3v3h1v1H9v1H8v2h2V6h3v2h2V6H14z M1,10h6V9H1V10z M5,11H1v1h4V11z M1,14h5v-1H1V14z"/>
</g>
<g id="colorAction">
	<path class="st3" d="M5,3H2l2-2h4v1v1v2L6,7V4L3,7H1L5,3z"/>
</g>
</svg>
