<?xml version="1.0" encoding="utf-8"?>
<!-- Generator: Adobe Illustrator 26.5.3, SVG Export Plug-In . SVG Version: 6.00 Build 0)  -->
<svg version="1.1" id="Layer_1" xmlns="http://www.w3.org/2000/svg" xmlns:xlink="http://www.w3.org/1999/xlink" x="0px" y="0px"
	 viewBox="0 0 16 16" style="enable-background:new 0 0 16 16;" xml:space="preserve">
<style type="text/css">
	.st0{fill:#252526;fill-opacity:0;}
	.st1{fill:#252526;}
	.st2{fill:#FFBE41;}
	.st3{fill:#C5C5C5;}
</style>
<g id="canvas">
	<path class="st0" d="M16,16H0V0h16V16z"/>
</g>
<g id="outline">
	<path class="st1" d="M16,2.5v10c0,0.8-0.7,1.5-1.5,1.5h-12C1.7,14,1,13.3,1,12.5v-8C1,3.7,1.7,3,2.5,3h2.9l1-2h8.1
		C15.3,1,16,1.7,16,2.5z"/>
</g>
<path class="st2" d="M15,2.5v10c0,0.3-0.2,0.5-0.5,0.5H14V4l0,0V3h-1h-2H8l0,0L7.5,4H10v9H2.5C2.2,13,2,12.8,2,12.5v-8
	C2,4.2,2.2,4,2.5,4H6l1-2h7.5C14.8,2,15,2.2,15,2.5z"/>
<path class="st3" d="M13,3v1h-2V3H13z M13,4v2h-2V4h-1v9h1v-1h1v-1h-1v-1h1V9h-1V8h1V7h1v1h-1v1h1v1h-1v1h1v1h-1v1h2V4H13z"/>
<g id="iconFg">
	<path class="st1" d="M11,3v1H7.5L8,3H11z M13,3v1h1V3H13z M13,7h-1v1h1V7z M13,9h-1v1h1V9z M11,10v1h1v-1H11z M13,11h-1v1h1V11z
		 M11,12v1h1v-1H11z M11,8v1h1V8H11z M13,6V4h-2v2H13z"/>
</g>
</svg>
